<svg width="1600" height="1000" viewBox="0 0 1600 1000" fill="none" xmlns="http://www.w3.org/2000/svg">
  <defs>
    <linearGradient id="bg" x1="120" y1="80" x2="1450" y2="900" gradientUnits="userSpaceOnUse">
      <stop stop-color="#D6EEFF"/>
      <stop offset="0.5" stop-color="#F3E8FF"/>
      <stop offset="1" stop-color="#FFE9D4"/>
    </linearGradient>
    <linearGradient id="panel" x1="420" y1="220" x2="1280" y2="760" gradientUnits="userSpaceOnUse">
      <stop stop-color="#FFFFFF"/>
      <stop offset="1" stop-color="#F5F8FF"/>
    </linearGradient>
    <linearGradient id="cardA" x1="0" y1="0" x2="1" y2="1">
      <stop stop-color="#E2F0FF"/>
      <stop offset="1" stop-color="#C6E0FF"/>
    </linearGradient>
    <linearGradient id="cardB" x1="0" y1="0" x2="1" y2="1">
      <stop stop-color="#FFE6F0"/>
      <stop offset="1" stop-color="#FFD1E4"/>
    </linearGradient>
    <linearGradient id="cardC" x1="0" y1="0" x2="1" y2="1">
      <stop stop-color="#F0E7FF"/>
      <stop offset="1" stop-color="#DFD0FF"/>
    </linearGradient>
    <filter id="blurShadow" x="350" y="160" width="940" height="700" filterUnits="userSpaceOnUse" color-interpolation-filters="sRGB">
      <feGaussianBlur stdDeviation="24"/>
    </filter>
  </defs>

  <rect width="1600" height="1000" rx="48" fill="url(#bg)"/>

  <circle cx="260" cy="220" r="170" fill="#B7DBFF" fill-opacity="0.45"/>
  <circle cx="1390" cy="200" r="190" fill="#FFD8BE" fill-opacity="0.55"/>
  <circle cx="1320" cy="790" r="220" fill="#D8CCFF" fill-opacity="0.5"/>

  <g filter="url(#blurShadow)">
    <rect x="430" y="240" width="780" height="520" rx="36" fill="#9AAED0" fill-opacity="0.3"/>
  </g>

  <rect x="400" y="210" width="800" height="540" rx="36" fill="url(#panel)" stroke="#FFFFFF" stroke-width="10"/>
  <rect x="400" y="210" width="800" height="70" rx="24" fill="#FFC857"/>
  <circle cx="458" cy="246" r="10" fill="#F86C6B"/>
  <circle cx="492" cy="246" r="10" fill="#FFE066"/>
  <circle cx="526" cy="246" r="10" fill="#7BD389"/>

  <rect x="452" y="320" width="320" height="170" rx="22" fill="url(#cardA)"/>
  <rect x="490" y="356" width="130" height="12" rx="6" fill="#8AB8F7"/>
  <rect x="490" y="382" width="220" height="70" rx="12" fill="#D4E8FF"/>

  <rect x="810" y="320" width="340" height="170" rx="22" fill="url(#cardB)"/>
  <rect x="846" y="356" width="140" height="12" rx="6" fill="#F597B8"/>
  <circle cx="1008" cy="410" r="46" fill="#FFB7D0"/>
  <circle cx="1008" cy="410" r="22" fill="#FFFFFF"/>

  <rect x="452" y="520" width="320" height="170" rx="22" fill="url(#cardC)"/>
  <rect x="490" y="556" width="150" height="12" rx="6" fill="#A388F3"/>
  <rect x="490" y="582" width="190" height="72" rx="12" fill="#E4D7FF"/>

  <rect x="810" y="520" width="340" height="170" rx="22" fill="#EFFFF4"/>
  <rect x="846" y="556" width="170" height="12" rx="6" fill="#71C98D"/>
  <g>
    <rect x="846" y="600" width="30" height="46" rx="8" fill="#A7E1BA"/>
    <rect x="886" y="582" width="30" height="64" rx="8" fill="#7FD49B"/>
    <rect x="926" y="560" width="30" height="86" rx="8" fill="#57C07E"/>
    <rect x="966" y="612" width="30" height="34" rx="8" fill="#8AD8A5"/>
    <rect x="1006" y="594" width="30" height="52" rx="8" fill="#66C88B"/>
  </g>

  <path d="M120 860C320 780 460 860 640 840C840 818 960 730 1180 770C1320 795 1450 840 1600 790V1000H0V895C40 890 78 880 120 860Z" fill="#7E57C2" fill-opacity="0.18"/>
</svg>
